<?xml version="1.0" standalone="no"?>
<!DOCTYPE svg PUBLIC "-//W3C//DTD SVG 1.1//EN" "http://www.w3.org/Graphics/SVG/1.1/DTD/svg11.dtd" >
<svg xmlns="http://www.w3.org/2000/svg">
<metadata></metadata>
<defs>
<font id="gotham_htfblack_italic" horiz-adv-x="1665" >
<font-face units-per-em="2048" ascent="1638" descent="-410" />
<missing-glyph horiz-adv-x="567" />
<glyph horiz-adv-x="0" />
<glyph horiz-adv-x="682" />
<glyph unicode=" "  horiz-adv-x="567" />
<glyph unicode="&#x09;" horiz-adv-x="567" />
<glyph unicode="&#xa0;" horiz-adv-x="567" />
<glyph unicode="!" horiz-adv-x="659" d="M-20 0l92 348h405l-94 -348h-403zM205 467l92 793l47 174h444l-49 -174l-331 -793h-203z" />
<glyph unicode="&#x22;" horiz-adv-x="1105" d="M137 698l195 736h418l-2 -11l-406 -725h-205zM668 698l196 736h418l-2 -11l-406 -725h-206z" />
<glyph unicode="#" horiz-adv-x="1427" d="M6 276l74 330h211l80 230h-193l74 329h235l95 269h297l-95 -269h258l95 269h297l-95 -269h168l-73 -329h-209l-82 -230h194l-73 -330h-236l-98 -276h-297l98 276h-260l-96 -276h-297l96 276h-168zM575 598h277l86 246h-276z" />
<glyph unicode="$" horiz-adv-x="1343" d="M-39 250l238 248q159 -132 327 -168l76 250q-98 30 -166 63t-121.5 78.5t-79.5 106.5t-26 141q0 96 44.5 181.5t123.5 148t195.5 99t254.5 36.5h19l35 118h213l-41 -141q215 -50 364 -180l-219 -266q-106 88 -244 131l-71 -236q95 -31 160.5 -64t118.5 -78.5t78.5 -106.5 t25.5 -140q0 -209 -173 -340t-450 -131h-10l-58 -201h-213l64 219q-290 54 -465 232zM598 1012q0 -34 24 -55.5t85 -43.5l61 211q-84 0 -127 -31.5t-43 -80.5zM713 311q81 3 123.5 33.5t42.5 83.5q0 33 -21.5 55t-79.5 45z" />
<glyph unicode="%" horiz-adv-x="1890" d="M139 0l1411 1434h289l-1413 -1434h-287zM162 1010q0 83 30.5 162.5t83.5 142t132 101t170 38.5q159 0 250.5 -93.5t91.5 -240.5q0 -83 -30.5 -162.5t-83 -142t-131.5 -101t-169 -38.5q-161 0 -252.5 93t-91.5 241zM401 1020q0 -58 31 -93.5t84 -35.5q72 0 119 67.5 t47 151.5q0 58 -31 93.5t-84 35.5q-72 0 -119 -68t-47 -151zM1057 313q0 83 30.5 163t83.5 142.5t132 101t170 38.5q159 0 250.5 -93t91.5 -241q0 -83 -30.5 -162.5t-83.5 -142t-132 -101t-170 -38.5q-159 0 -250.5 93.5t-91.5 239.5zM1294 324q0 -57 31.5 -93t83.5 -36 q73 0 120.5 68t47.5 151q0 57 -31.5 93t-83.5 36q-73 0 -120.5 -67.5t-47.5 -151.5z" />
<glyph unicode="&#x26;" horiz-adv-x="1433" d="M27 373q0 160 108.5 275.5t302.5 178.5q-65 127 -65 238q0 167 126 281t328 114q189 0 307.5 -102t118.5 -260q0 -265 -354 -393l125 -170q75 81 147 188l232 -162q-86 -133 -201 -254l117 -157l-260 -179l-101 142q-213 -136 -438 -136q-229 0 -361 106.5t-132 289.5z M401 403q0 -58 45 -94.5t123 -36.5q96 0 211 68l-194 276q-185 -77 -185 -213zM696 1051q0 -72 47 -146q104 39 148.5 79.5t44.5 98.5q0 46 -29.5 76.5t-77.5 30.5q-59 0 -96 -40.5t-37 -98.5z" />
<glyph unicode="'" horiz-adv-x="577" d="M137 698l195 736h424l-2 -11l-406 -725h-211z" />
<glyph unicode="(" horiz-adv-x="931" d="M92 444q0 179 62 340.5t175 289.5t266.5 226t340.5 160l115 -264q-285 -126 -433.5 -325t-148.5 -416q0 -140 61.5 -264t186.5 -259l-221 -225q-404 308 -404 737z" />
<glyph unicode=")" horiz-adv-x="931" d="M-102 -23q192 84 325.5 208t194.5 258t61 276q0 140 -61 263.5t-187 258.5l224 225q401 -308 401 -737q0 -179 -62 -340.5t-174.5 -289.5t-266 -226t-339.5 -160z" />
<glyph unicode="*" horiz-adv-x="892" d="M186 1069l277 21l-230 157l158 156l156 -229l20 274l209 -55l-119 -250l250 121l58 -213l-277 -21l230 -158l-158 -153l-156 229l-20 -274l-209 55l119 248l-250 -119z" />
<glyph unicode="+" horiz-adv-x="1331" d="M141 549l92 344h345l94 352h358l-94 -352h344l-92 -344h-344l-94 -352h-359l94 352h-344z" />
<glyph unicode="," horiz-adv-x="618" d="M-152 -188q231 23 269 192h-158l109 399h403l-92 -344q-36 -134 -97 -217.5t-163 -128.5t-254 -51z" />
<glyph unicode="-" horiz-adv-x="854" d="M68 469l92 342h671l-90 -342h-673z" />
<glyph unicode="." horiz-adv-x="618" d="M-41 0l107 399h405l-109 -399h-403z" />
<glyph unicode="/" horiz-adv-x="1095" d="M-297 -262l1397 1896h340l-1397 -1896h-340z" />
<glyph unicode="0" horiz-adv-x="1486" d="M102 553q0 136 36 269t106 248t164.5 203t220.5 138.5t266 50.5q132 0 240.5 -44.5t181.5 -122.5t113 -184.5t40 -229.5q0 -172 -57.5 -335t-158.5 -291t-252 -206t-326 -78q-174 0 -305.5 76.5t-200 208t-68.5 297.5zM506 573q0 -122 55.5 -186.5t149.5 -64.5 q79 0 147.5 51t113 130t70 172.5t25.5 182.5q0 123 -56.5 187.5t-150.5 64.5q-79 0 -147.5 -51t-112.5 -130.5t-69 -173t-25 -182.5z" />
<glyph unicode="1" horiz-adv-x="880" d="M172 0l283 1059l-240 -58l-8 322l455 121h288l-387 -1444h-391z" />
<glyph unicode="2" horiz-adv-x="1284" d="M-68 0l84 307l729 475q91 61 128.5 110.5t37.5 102.5q0 55 -36 86t-103 31q-145 0 -326 -178l-231 244q254 278 594 278q231 0 367.5 -113.5t136.5 -295.5q0 -139 -83.5 -255.5t-293.5 -244.5l-350 -223h571l-88 -324h-1137z" />
<glyph unicode="3" horiz-adv-x="1251" d="M-49 248l270 223q122 -160 303 -160q104 0 172 51t68 119q0 131 -223 131h-138l-8 205l402 295h-537l86 322h1036l-77 -285l-439 -305q138 -38 214.5 -126t76.5 -222q0 -234 -176 -379.5t-457 -145.5q-386 0 -573 277z" />
<glyph unicode="4" horiz-adv-x="1390" d="M14 569l975 875h420l-231 -869h182l-82 -296h-180l-76 -279h-381l74 279h-658zM457 573h338l108 408z" />
<glyph unicode="5" horiz-adv-x="1253" d="M-45 227l250 234q155 -152 342 -152q111 0 180.5 56.5t69.5 138.5q0 68 -54.5 110.5t-158.5 42.5q-107 0 -203 -59l-203 141l228 695h946l-88 -328h-627l-66 -199q86 29 183 29q199 0 320.5 -107.5t121.5 -289.5q0 -118 -47.5 -221.5t-132 -180t-209.5 -120.5t-272 -44 q-172 0 -332.5 74t-247.5 180z" />
<glyph unicode="6" horiz-adv-x="1339" d="M100 512q0 199 72.5 391t208.5 328q229 229 563 229q281 0 463 -155l-199 -281q-57 51 -130.5 81t-149.5 30q-166 0 -279 -113q-79 -79 -121 -197q58 49 145 81t183 32q113 0 205.5 -44.5t149.5 -134.5t57 -210q0 -155 -82.5 -287.5t-225.5 -210.5t-311 -78 q-124 0 -228 37.5t-173 106.5q-148 148 -148 395zM471 436q0 -68 45 -110q52 -52 133 -52q98 0 163 69t65 159q0 71 -48 115.5t-124 44.5q-102 0 -168 -67t-66 -159z" />
<glyph unicode="7" horiz-adv-x="1257" d="M-8 0l864 1100h-647l90 334h1106l-82 -299l-877 -1135h-454z" />
<glyph unicode="8" horiz-adv-x="1359" d="M49 381q0 148 92.5 246.5t257.5 142.5q-75 44 -115 114.5t-40 155.5q0 77 37.5 150t106.5 132.5t180.5 95.5t246.5 36q236 0 383.5 -111.5t147.5 -279.5q0 -130 -81.5 -221t-226.5 -133q99 -41 155 -115.5t56 -179.5q0 -185 -172.5 -309.5t-451.5 -124.5 q-157 0 -287.5 48t-209.5 140.5t-79 212.5zM442 428q-1 -70 58.5 -113t146.5 -43q93 0 157 47.5t64 122.5q1 70 -57.5 112t-146.5 42q-93 0 -157.5 -47.5t-64.5 -120.5zM594 999q-1 -66 52 -105.5t132 -39.5q83 0 141 46t58 116q1 65 -51 105t-133 40q-83 0 -141 -46 t-58 -116z" />
<glyph unicode="9" horiz-adv-x="1339" d="M10 139l199 279q143 -119 289 -119q163 0 280 117q79 76 117 186q-57 -49 -143 -79.5t-183 -30.5q-175 0 -293 103.5t-118 285.5q0 121 49 229t131.5 185t197 122t240.5 45q121 0 227.5 -37.5t174.5 -105.5q149 -149 149 -410q0 -193 -74 -381t-211 -325 q-230 -230 -555 -230q-281 0 -477 166zM549 928q0 -73 49 -117.5t127 -44.5q99 0 164 68t65 163q0 67 -43 113q-49 49 -133 49q-100 0 -164.5 -68t-64.5 -163z" />
<glyph unicode=":" horiz-adv-x="628" d="M-37 0l109 399h403l-106 -399h-406zM154 709l106 399h406l-109 -399h-403z" />
<glyph unicode=";" horiz-adv-x="628" d="M-147 -193q230 23 268 193h-158l109 399h403l-92 -344q-36 -134 -97 -217.5t-163 -128.5t-254 -51zM154 709l106 399h406l-109 -399h-403z" />
<glyph unicode="&#x3c;" horiz-adv-x="1318" d="M139 539l99 362l1126 406l-102 -379l-730 -226l611 -223l-92 -346z" />
<glyph unicode="=" horiz-adv-x="1308" d="M78 274l92 342h1006l-91 -342h-1007zM225 825l92 342h1008l-92 -342h-1008z" />
<glyph unicode="&#x3e;" horiz-adv-x="1318" d="M41 133l102 379l729 225l-610 224l92 346l912 -406l-99 -362z" />
<glyph unicode="?" horiz-adv-x="1105" d="M137 0l94 348h404l-94 -348h-404zM199 1274q101 87 232 133.5t274 46.5q210 0 336 -106.5t126 -266.5q0 -179 -128 -300t-386 -163l-61 -151h-248l37 344l18 16q373 31 373 179q0 47 -34.5 74.5t-102.5 27.5q-134 0 -277 -111z" />
<glyph unicode="@" horiz-adv-x="1976" d="M96 479q0 196 77.5 377t210 314.5t320 213.5t396.5 80q189 0 346 -55.5t260.5 -151t160 -223t56.5 -272.5q0 -163 -43 -290t-115 -202.5t-158.5 -114t-181.5 -38.5q-109 0 -190 46t-121 122q-149 -164 -326 -164q-136 0 -226.5 95.5t-90.5 256.5q0 123 41.5 233.5 t110 188t160 123t188.5 45.5q176 0 264 -148l43 138l301 -82l-164 -520q-31 -96 1.5 -150.5t117.5 -54.5q51 0 103.5 34.5t98 98t74.5 165.5t29 224q0 126 -51 237.5t-143.5 195.5t-233.5 132.5t-311 48.5q-192 0 -364 -73.5t-293 -196t-192 -288t-71 -345.5 q0 -211 96 -373.5t271 -252t401 -89.5q209 0 420 93l33 -76q-212 -96 -455 -96q-249 0 -442.5 99.5t-300.5 280t-107 414.5zM801 535q0 -66 38 -105t103 -39q89 0 156 77t67 183q0 63 -40 102.5t-103 39.5q-90 0 -155.5 -76.5t-65.5 -181.5z" />
<glyph unicode="A" horiz-adv-x="1587" d="M-152 0l998 1444h389l223 -1444h-418l-34 256h-553l-172 -256h-433zM653 565h320l-51 412z" />
<glyph unicode="B" horiz-adv-x="1462" d="M-25 0l385 1434h596q114 0 204 -18.5t148 -50t96.5 -76t54.5 -93.5t16 -106q0 -136 -85.5 -233t-236.5 -134q100 -35 158.5 -108t58.5 -179q0 -195 -165.5 -315.5t-485.5 -120.5h-744zM449 319h301q102 0 161.5 42t59.5 110q0 113 -176 113h-275zM596 862h268 q104 0 160.5 39t56.5 107q0 106 -172 106h-247z" />
<glyph unicode="C" horiz-adv-x="1488" d="M104 598q0 127 39.5 252.5t117.5 235t184.5 194t250 133.5t303.5 49q215 0 365.5 -96.5t216.5 -265.5l-344 -185q-90 185 -289 185q-116 0 -215.5 -66t-156 -174.5t-56.5 -232.5q0 -135 80 -215t207 -80q90 0 162 36t145 109l268 -237q-237 -269 -600 -269 q-301 0 -489.5 171.5t-188.5 455.5z" />
<glyph unicode="D" horiz-adv-x="1558" d="M-25 0l385 1434h463q376 0 561 -185q156 -156 156 -420q0 -330 -235 -565q-264 -264 -752 -264h-578zM469 352h131q125 0 232.5 38t177.5 108q58 58 90.5 136.5t32.5 162.5q0 124 -72 196q-85 88 -281 88h-114z" />
<glyph unicode="E" horiz-adv-x="1370" d="M-25 0l385 1434h1149l-92 -338h-753l-60 -217h684l-84 -314h-684l-61 -227h766l-90 -338h-1160z" />
<glyph unicode="F" horiz-adv-x="1335" d="M-25 0l385 1434h1147l-94 -349h-747l-66 -243h676l-88 -330h-676l-137 -512h-400z" />
<glyph unicode="G" horiz-adv-x="1560" d="M102 604q0 170 67.5 326.5t186.5 274t292.5 187.5t373.5 70q203 0 358.5 -69.5t235.5 -173.5l-266 -258q-147 147 -355 147q-212 0 -349.5 -142.5t-137.5 -344.5q0 -145 91.5 -225.5t229.5 -80.5q108 0 191 39l57 193h-276l76 291h657l-205 -723q-248 -144 -536 -144 q-105 0 -203.5 23t-187.5 73.5t-155.5 123t-105.5 179t-39 234.5z" />
<glyph unicode="H" horiz-adv-x="1550" d="M-25 0l385 1434h400l-146 -537h506l144 537h399l-385 -1434h-399l147 545h-506l-145 -545h-400z" />
<glyph unicode="I" horiz-adv-x="665" d="M-14 0l385 1434h397l-385 -1434h-397z" />
<glyph unicode="J" horiz-adv-x="1163" d="M-84 227l270 236q55 -74 109.5 -106.5t120.5 -32.5q88 0 153 65q31 31 55.5 83.5t53.5 160.5l215 801h395l-233 -877q-42 -155 -91 -254t-122 -172q-159 -156 -439 -156q-153 0 -282 66t-205 186z" />
<glyph unicode="K" horiz-adv-x="1478" d="M-25 0l385 1434h400l-156 -574l592 574h506l-676 -629l320 -805h-431l-206 553l-248 -227l-86 -326h-400z" />
<glyph unicode="L" horiz-adv-x="1263" d="M-25 0l385 1434h400l-291 -1086h684l-94 -348h-1084z" />
<glyph unicode="M" horiz-adv-x="1773" d="M-25 0l385 1434h402l190 -555l488 555h446l-385 -1434h-399l219 823l-514 -561h-8l-211 557l-219 -819h-394z" />
<glyph unicode="N" horiz-adv-x="1599" d="M-25 0l385 1434h371l371 -797l215 797h395l-385 -1434h-348l-387 825l-221 -825h-396z" />
<glyph unicode="O" d="M106 616q0 130 40.5 255t117.5 230.5t180.5 186.5t237 126.5t279.5 45.5q150 0 278.5 -49.5t217 -135t138.5 -204t50 -254.5q0 -108 -29 -214t-81.5 -199t-130 -172.5t-170.5 -136.5t-207 -89.5t-236 -32.5q-200 0 -357 84.5t-242.5 231t-85.5 327.5zM512 647 q0 -141 82.5 -229t230.5 -88q91 0 170.5 41t131.5 107t82 147t30 161q0 141 -82.5 229.5t-230.5 88.5q-90 0 -169.5 -41.5t-132 -107.5t-82.5 -147t-30 -161z" />
<glyph unicode="P" horiz-adv-x="1376" d="M-25 0l385 1434h469q340 0 492 -152q113 -113 113 -293q0 -175 -89.5 -306.5t-251 -201t-372.5 -69.5h-236l-110 -412h-400zM567 721h150q146 0 227.5 60t81.5 163q0 59 -41 100q-56 56 -170 56h-147z" />
<glyph unicode="Q" d="M106 616q0 130 40.5 255t117.5 230.5t180.5 186.5t237 126.5t279.5 45.5q150 0 278.5 -49.5t217 -135t138.5 -204t50 -254.5q0 -158 -62 -307t-174 -268l109 -148l-283 -186l-92 141q-164 -76 -352 -76q-200 0 -357 84.5t-242.5 231t-85.5 327.5zM510 643 q0 -144 82.5 -232.5t230.5 -88.5q47 0 103 18l-158 213l285 188l123 -192q63 111 63 233q0 144 -82.5 233t-230.5 89q-91 0 -170.5 -41.5t-132.5 -108t-83 -148t-30 -163.5z" />
<glyph unicode="R" horiz-adv-x="1474" d="M-25 0l385 1434h541q344 0 494 -150q110 -110 110 -293q0 -185 -107.5 -317t-322.5 -191l221 -483h-438l-190 434h-176l-117 -434h-400zM573 745h228q134 0 214.5 53.5t80.5 145.5q0 56 -37 96q-50 50 -176 50h-215z" />
<glyph unicode="S" horiz-adv-x="1320" d="M-47 238l256 264q210 -195 442 -195q72 0 117 29t45 78q0 42 -45.5 72.5t-194.5 88.5q-91 35 -154.5 69.5t-115.5 81t-77 107.5t-25 138q0 140 78.5 251.5t217.5 173.5t312 62q365 0 588 -213l-246 -274q-182 157 -379 157q-70 0 -113 -29t-43 -73q0 -41 43 -68t197 -88 q90 -34 153 -68.5t115.5 -81.5t78.5 -109t26 -140q0 -220 -171.5 -358t-439.5 -138q-208 0 -378 68.5t-287 194.5z" />
<glyph unicode="T" horiz-adv-x="1320" d="M172 1085l94 349h1256l-92 -349h-431l-290 -1085h-400l293 1085h-430z" />
<glyph unicode="U" horiz-adv-x="1556" d="M121 475q0 101 33 230l196 729h402l-203 -758q-21 -79 -21 -135q0 -98 59 -153.5t165 -55.5q116 0 192 76q77 74 121 237l213 789h401l-227 -848q-76 -281 -223 -428q-185 -185 -529 -185q-276 0 -427.5 132.5t-151.5 369.5z" />
<glyph unicode="V" horiz-adv-x="1513" d="M223 1434h434l80 -902l563 902h449l-965 -1444h-370z" />
<glyph unicode="W" horiz-adv-x="2256" d="M240 1434h411l27 -830l496 834h344l55 -834l471 830h432l-866 -1444h-357l-65 815l-502 -815h-354z" />
<glyph unicode="X" horiz-adv-x="1460" d="M-154 0l699 750l-297 684h436l158 -404l354 404h479l-663 -713l315 -721h-438l-172 442l-389 -442h-482z" />
<glyph unicode="Y" horiz-adv-x="1386" d="M186 1434h428l142 -537l432 537h475l-801 -922l-137 -512h-399l149 555z" />
<glyph unicode="Z" horiz-adv-x="1394" d="M-74 0l76 289l913 809h-671l92 336h1218l-77 -289l-914 -809h699l-91 -336h-1245z" />
<glyph unicode="[" horiz-adv-x="958" d="M-53 -266l456 1700h709l-72 -265h-360l-315 -1171h360l-70 -264h-708z" />
<glyph unicode="\" horiz-adv-x="1095" d="M223 1634h314l424 -1896h-314z" />
<glyph unicode="]" horiz-adv-x="958" d="M-137 -266l71 264h361l313 1171h-360l71 265h709l-457 -1700h-708z" />
<glyph unicode="^" horiz-adv-x="1024" d="M182 1010l408 422h262l182 -422h-252l-102 198l-209 -198h-289z" />
<glyph unicode="_" horiz-adv-x="1228" d="M-240 -328l64 238h1237l-64 -238h-1237z" />
<glyph unicode="`" horiz-adv-x="1024" d="M455 1464l366 117l113 -379h-252z" />
<glyph unicode="a" horiz-adv-x="1222" d="M2 279q0 181 132.5 286t354.5 105q141 0 281 -43l4 14q10 45 10 68q0 118 -190 118q-161 0 -299 -55l-55 283q191 67 436 67t369 -91.5t124 -260.5q0 -74 -22 -160l-164 -610h-383l31 119q-75 -70 -151.5 -106t-168.5 -36q-138 0 -223.5 82.5t-85.5 219.5zM381 319 q0 -47 30.5 -74.5t80.5 -27.5q74 0 139 58t88 143l10 37q-74 24 -145 24q-93 0 -148 -43t-55 -117z" />
<glyph unicode="b" horiz-adv-x="1376" d="M-43 0l399 1495h389l-135 -504q145 142 316 142q170 0 281.5 -123t111.5 -332q0 -145 -49 -276.5t-130 -224.5t-190.5 -147.5t-226.5 -54.5q-220 0 -336 177l-41 -152h-389zM463 496q0 -89 53.5 -143t138.5 -54q110 0 190.5 93t80.5 224q0 89 -52 142t-137 53 q-112 0 -193 -94t-81 -221z" />
<glyph unicode="c" horiz-adv-x="1153" d="M57 459q0 183 89 337.5t242 244t335 89.5q184 0 304 -83.5t167 -219.5l-305 -157q-29 69 -74 104t-117 35q-108 0 -187 -101t-79 -229q0 -83 48 -133.5t122 -50.5q60 0 108 24.5t101 77.5l238 -207q-91 -106 -204 -161.5t-270 -55.5q-228 0 -373 132.5t-145 353.5z" />
<glyph unicode="d" horiz-adv-x="1376" d="M57 430q0 145 49 276.5t130 224.5t190.5 147.5t226.5 54.5q220 0 336 -177l144 539h389l-400 -1495h-389l33 117q-149 -142 -315 -142q-170 0 -282 123t-112 332zM451 492q0 -89 51.5 -142t136.5 -53q112 0 193 94t81 221q0 89 -53.5 143t-138.5 54q-110 0 -190 -93 t-80 -224z" />
<glyph unicode="e" horiz-adv-x="1230" d="M57 465q0 98 29.5 195t87.5 182t137 150t186 103t226 38t211.5 -37.5t148 -102.5t83.5 -145.5t28 -173.5q0 -113 -43 -228h-735q6 -86 58 -134t149 -48q114 0 235 88l180 -213q-191 -166 -452 -166q-245 0 -387 133.5t-142 358.5zM442 645h396q10 30 10 60 q0 61 -39.5 101t-112.5 40q-81 0 -150.5 -52.5t-103.5 -148.5z" />
<glyph unicode="f" horiz-adv-x="856" d="M27 0l215 795h-131l84 313h129l6 22q52 200 167 289.5t308 89.5q141 0 248 -36l-72 -273q-73 25 -131 25q-59 0 -92 -25.5t-47 -79.5l-6 -18h249l-82 -307h-241l-215 -795h-389z" />
<glyph unicode="g" horiz-adv-x="1368" d="M-96 -180l174 243q188 -114 393 -114q147 0 229 82q59 59 93 178l6 24q-150 -135 -336 -135q-103 0 -191.5 43t-146 132t-57.5 208q0 171 75.5 319.5t210 239t295.5 90.5q224 0 336 -180l41 158h389l-235 -881q-39 -148 -84 -237.5t-113 -159.5q-84 -83 -204 -122.5 t-292 -39.5q-158 0 -316 42t-267 110zM455 549q0 -78 49 -124t131 -46q110 0 186 80.5t76 187.5q0 78 -50 127t-134 49q-110 0 -184 -82.5t-74 -191.5z" />
<glyph unicode="h" horiz-adv-x="1294" d="M-43 0l399 1495h389l-137 -514q144 152 318 152q150 0 235.5 -89t85.5 -243q0 -71 -33 -199l-159 -602h-389l155 580q13 47 13 90q0 56 -31.5 86t-91.5 30q-152 0 -207 -200l-158 -586h-389z" />
<glyph unicode="i" horiz-adv-x="616" d="M-35 0l297 1108h389l-297 -1108h-389zM283 1208l77 287h406l-78 -287h-405z" />
<glyph unicode="j" horiz-adv-x="620" d="M-274 -319l67 258q28 -7 49 -7q60 0 94.5 36t57.5 124l272 1016h389l-286 -1065q-58 -211 -171 -294t-307 -83q-83 0 -165 15zM285 1208l77 287h406l-78 -287h-405z" />
<glyph unicode="k" horiz-adv-x="1226" d="M-43 0l401 1495h390l-197 -731l371 344h469l-510 -455l217 -653h-416l-119 393l-145 -129l-72 -264h-389z" />
<glyph unicode="l" horiz-adv-x="616" d="M-35 0l402 1495h389l-402 -1495h-389z" />
<glyph unicode="m" horiz-adv-x="1982" d="M-43 0l297 1108h389l-33 -123q144 148 310 148q110 0 183 -51.5t105 -141.5q169 193 402 193q156 0 241.5 -88t85.5 -242q0 -77 -32 -201l-162 -602h-387l153 580q15 54 15 90q0 116 -119 116q-148 0 -203 -200l-158 -586h-389l156 580q14 51 14 90q0 116 -118 116 q-148 0 -203 -200l-158 -586h-389z" />
<glyph unicode="n" horiz-adv-x="1290" d="M-43 0l297 1108h389l-35 -127q144 152 318 152q150 0 235.5 -89t85.5 -243q0 -71 -33 -199l-159 -602h-389l155 580q13 47 13 90q0 56 -31.5 86t-91.5 30q-152 0 -207 -200l-158 -586h-389z" />
<glyph unicode="o" horiz-adv-x="1318" d="M61 489q0 124 50.5 241.5t136 206t208 142.5t257.5 54q249 0 396.5 -145.5t147.5 -369.5q0 -125 -50 -242.5t-136 -206.5t-208.5 -142.5t-258.5 -53.5q-248 0 -395.5 145.5t-147.5 370.5zM434 504q0 -95 53 -151t140 -56q110 0 184 95.5t74 211.5q0 93 -53 149t-140 56 q-110 0 -184 -95.5t-74 -209.5z" />
<glyph unicode="p" horiz-adv-x="1376" d="M-131 -328l385 1436h389l-33 -117q145 142 316 142q170 0 281.5 -123t111.5 -332q0 -145 -49 -276.5t-130 -224.5t-190.5 -147.5t-226.5 -54.5q-220 0 -336 177l-129 -480h-389zM463 496q0 -89 53.5 -143t138.5 -54q110 0 190.5 93t80.5 224q0 89 -52 142t-137 53 q-112 0 -193 -94t-81 -221z" />
<glyph unicode="q" horiz-adv-x="1376" d="M57 430q0 145 49 276.5t130 224.5t190.5 147.5t226.5 54.5q220 0 336 -177l41 152h389l-395 -1477h-389l131 486q-149 -142 -315 -142q-170 0 -282 123t-112 332zM451 492q0 -89 51.5 -142t136.5 -53q112 0 193 94t81 221q0 89 -53.5 143t-138.5 54q-110 0 -190 -93 t-80 -224z" />
<glyph unicode="r" horiz-adv-x="880" d="M-43 0l297 1108h389l-59 -223q84 125 185 187q88 55 198 55q16 0 32 -1l-110 -409h-33q-161 0 -264.5 -93t-155.5 -290l-90 -334h-389z" />
<glyph unicode="s" horiz-adv-x="1046" d="M-76 166l193 227q77 -70 178.5 -109.5t189.5 -39.5q49 0 74 18t25 49q0 28 -32.5 49.5t-119.5 55.5q-74 30 -124 56.5t-96 64.5t-68.5 88t-22.5 114q0 171 130 282.5t353 111.5q142 0 270 -44.5t209 -111.5l-186 -234q-73 55 -156 87t-157 32q-47 0 -72 -16.5t-25 -46.5 q0 -27 32.5 -48.5t121.5 -56.5q55 -22 94 -40.5t83 -47.5t70.5 -60.5t44 -76.5t17.5 -98q0 -81 -30.5 -152t-88.5 -126.5t-151 -87.5t-209 -32q-157 0 -301.5 51.5t-245.5 141.5z" />
<glyph unicode="t" horiz-adv-x="880" d="M102 240q0 52 21 145l110 410h-131l84 313h131l76 281h389l-75 -281h258l-84 -313h-258l-95 -349q-10 -45 -10 -67q0 -70 88 -70q60 0 148 31l-86 -324q-109 -39 -230 -39q-166 0 -251 69t-85 194z" />
<glyph unicode="u" horiz-adv-x="1294" d="M53 307q0 78 31 199l162 602h389l-156 -580q-14 -51 -14 -90q0 -56 32 -86t93 -30q153 0 205 200l157 586h389l-294 -1108h-390l33 127q-144 -152 -315 -152q-150 0 -236 89.5t-86 242.5z" />
<glyph unicode="v" horiz-adv-x="1271" d="M166 1108h399l41 -645l383 645h414l-739 -1116h-355z" />
<glyph unicode="w" horiz-adv-x="1759" d="M172 1108h375l-4 -557l321 561h320l22 -565l299 561h379l-641 -1116h-332l-26 575l-338 -575h-336z" />
<glyph unicode="x" horiz-adv-x="1206" d="M-127 0l530 575l-229 533h404l96 -268l223 268h438l-516 -561l234 -547h-404l-100 281l-238 -281h-438z" />
<glyph unicode="y" horiz-adv-x="1273" d="M-102 -254l174 285q77 -56 153 -56q56 0 97 41l-144 1092h395l45 -666l373 666h410l-686 -1102q-119 -186 -238.5 -263t-283.5 -77q-171 0 -295 80z" />
<glyph unicode="z" horiz-adv-x="1142" d="M-82 0l70 256l651 543h-487l81 309h996l-68 -256l-653 -543h510l-82 -309h-1018z" />
<glyph unicode="{" horiz-adv-x="1017" d="M55 459l68 258h55q83 0 135 15t86.5 54t52 94.5t31.5 149.5q12 88 35.5 152.5t69 119.5t114.5 89t172.5 53t243.5 20l25 -229q-79 -6 -136 -23t-92.5 -41.5t-58 -63.5t-32.5 -80t-17 -101q-12 -90 -31 -148.5t-57.5 -105.5t-100 -72.5t-153.5 -36.5q90 -18 133 -69 t43 -125q0 -53 -29 -146q-30 -88 -30 -139q0 -64 38.5 -99.5t147.5 -62.5l-109 -211q-124 14 -210.5 40.5t-135 66t-69.5 86t-21 106.5q0 64 33 168q33 108 33 156q0 64 -36.5 94.5t-143.5 30.5h-54z" />
<glyph unicode="|" horiz-adv-x="729" d="M250 -262v1896h297v-1896h-297z" />
<glyph unicode="}" horiz-adv-x="1017" d="M-106 -59q66 5 116 16.5t84.5 32.5t58 44.5t38.5 59.5t23 70.5t15 85.5q12 90 31 148.5t57.5 105t100 72t153.5 36.5q-90 18 -133 69.5t-43 125.5q0 52 29 145q31 91 31 140q0 64 -39 99t-148 62l109 211q124 -14 210.5 -40.5t135 -66t69.5 -86t21 -106.5q0 -64 -33 -168 q-32 -105 -32 -155q0 -64 36.5 -94.5t143.5 -30.5h53l-68 -258h-55q-83 0 -135.5 -15t-87 -54.5t-52 -95t-30.5 -149.5q-12 -88 -35.5 -152.5t-69 -119.5t-114.5 -89t-172.5 -53t-243.5 -20z" />
<glyph unicode="~" horiz-adv-x="1034" d="M84 526q58 141 144 218t184 77q87 0 172 -63q70 -49 106 -49q40 0 71.5 29t63.5 87l183 -84q-60 -142 -146.5 -218.5t-183.5 -76.5q-86 0 -172 64q-70 49 -107 49q-40 0 -71.5 -29.5t-63.5 -87.5z" />
<glyph unicode="&#xa1;" horiz-adv-x="659" d="M-41 0l49 174l332 793h203l-92 -793l-48 -174h-444zM270 1085l95 349h403l-92 -349h-406z" />
<glyph unicode="&#xa2;" horiz-adv-x="1198" d="M111 653q0 136 51 257.5t138.5 209.5t212 139.5t265.5 51.5h43l53 135h226l-72 -182q176 -79 240 -260l-281 -146q-27 74 -86 115l-201 -520q111 8 211 108l222 -196q-182 -211 -467 -211q-47 0 -72 4l-66 -170h-225l86 219q-132 61 -205 176t-73 270zM451 670 q0 -110 67 -164l199 506q-116 -10 -191 -113.5t-75 -228.5z" />
<glyph unicode="&#xa3;" horiz-adv-x="1292" d="M-45 0l63 238l168 57l68 248h-154l74 276h154l30 117q61 236 189 364q158 158 422 158q146 0 261.5 -59t178.5 -154l-268 -241q-39 52 -83 78t-106 26q-76 0 -131 -55q-46 -43 -73 -142l-27 -92h428l-74 -276h-426l-61 -228h583l-84 -315h-1132z" />
<glyph unicode="&#xa4;" horiz-adv-x="1386" d="M39 457l57 213h137q10 60 23 102h-133l57 213h133q93 217 269 347t419 130q365 0 504 -301l-291 -194q-43 79 -99 116t-144 37q-159 0 -252 -139h346l-55 -207h-369q-18 -63 -25 -106h365l-55 -207h-316q17 -73 69 -110.5t126 -37.5t134 28.5t124 92.5l227 -244 q-206 -219 -502 -219q-234 0 -388 132t-177 354h-184z" />
<glyph unicode="&#xa5;" horiz-adv-x="1470" d="M63 190l66 246h377l26 103h-376l65 245h287l-250 650h420l149 -471l385 471h469l-596 -650h283l-65 -245h-377l-27 -103h375l-66 -246h-377l-51 -190h-391l51 190h-377z" />
<glyph unicode="&#xa7;" horiz-adv-x="1280" d="M47 168l203 215q65 -60 157.5 -100.5t174.5 -40.5q108 0 108 61q0 28 -40 48t-161 57q-66 19 -116 37.5t-98.5 44t-79 54t-49.5 67t-19 83.5q0 97 62.5 166.5t195.5 100.5q-68 71 -68 167q0 141 131 237.5t347 96.5q162 0 302.5 -52t223.5 -140l-201 -215 q-64 60 -157.5 99.5t-176.5 39.5q-51 0 -78.5 -15.5t-27.5 -43.5q0 -29 40.5 -50t158.5 -55q67 -20 116.5 -38.5t98 -44.5t79 -54.5t49.5 -67t19 -84.5q0 -203 -256 -266q66 -73 66 -166q0 -143 -130 -238.5t-348 -95.5q-162 0 -302 52t-224 141zM436 764q0 -32 39.5 -56.5 t138.5 -58.5q149 -51 213 -51q44 0 74.5 20.5t30.5 53.5q0 34 -39.5 57.5t-138.5 56.5q-157 54 -211 54q-46 0 -76.5 -21t-30.5 -55z" />
<glyph unicode="&#xa8;" horiz-adv-x="1024" d="M291 1202l80 293h340l-80 -293h-340zM739 1202l80 293h340l-80 -293h-340z" />
<glyph unicode="&#xa9;" horiz-adv-x="1699" d="M156 713v4q0 149 58 286t157 238t237 161t291 60t290.5 -59.5t235.5 -159.5t155.5 -236.5t57.5 -285.5v-4q0 -149 -58 -286.5t-157 -238t-237 -161t-291 -60.5t-290.5 59.5t-235.5 160t-155.5 237t-57.5 285.5zM242 713q0 -134 50 -255.5t136 -210.5t208 -141.5 t259 -52.5q138 0 260.5 53t209 143t137 212t50.5 256v4q0 179 -84.5 330t-235 240t-333.5 89q-138 0 -260.5 -53t-209 -142.5t-137 -211.5t-50.5 -256v-4zM494 723v4q0 170 118 289t299 119q214 0 332 -162l-166 -131q-72 92 -170 92q-81 0 -133.5 -59.5t-52.5 -145.5v-4 q0 -87 52.5 -146t133.5 -59q57 0 96.5 23.5t79.5 70.5l166 -118q-61 -85 -142 -131t-200 -46q-179 0 -296 116t-117 288z" />
<glyph unicode="&#xaa;" horiz-adv-x="808" d="M92 553l43 158h590l-43 -158h-590zM203 979q0 100 73.5 158.5t194.5 58.5q75 0 154 -27l4 13q6 15 6 32q0 68 -105 68q-83 0 -161 -29l-31 154q103 39 237 39t202.5 -51t68.5 -144q0 -41 -12 -88l-91 -336h-213l19 66q-81 -78 -176 -78q-76 0 -123 45t-47 119zM412 1004 q0 -25 17 -41.5t44 -16.5q40 0 76.5 32t46.5 77l6 22q-51 15 -82 15q-48 0 -78 -24.5t-30 -63.5z" />
<glyph unicode="&#xab;" horiz-adv-x="1290" d="M61 516l27 100l440 435l215 -197l-340 -330l168 -338l-288 -129zM590 532l4 17l493 485l216 -196l-351 -340l158 -318l-289 -129z" />
<glyph unicode="&#xad;" horiz-adv-x="854" d="M68 469l92 342h671l-90 -342h-673z" />
<glyph unicode="&#xae;" horiz-adv-x="1699" d="M156 713v4q0 149 58 286t157 238t237 161t291 60t290.5 -59.5t235.5 -159.5t155.5 -236.5t57.5 -285.5v-4q0 -149 -58 -286.5t-157 -238t-237 -161t-291 -60.5t-290.5 59.5t-235.5 160t-155.5 237t-57.5 285.5zM242 713q0 -134 50 -255.5t136 -210.5t208 -141.5 t259 -52.5q138 0 260.5 53t209 143t137 212t50.5 256v4q0 179 -84.5 330t-235 240t-333.5 89q-138 0 -260.5 -53t-209 -142.5t-137 -211.5t-50.5 -256v-4zM569 344v789h369q175 0 264 -89q70 -70 70 -180v-4q0 -173 -164 -242l188 -274h-252l-159 240h-4h-90v-240h-222z M791 754h141q57 0 88 24.5t31 67.5v4q0 46 -32 70t-87 24h-141v-190z" />
<glyph unicode="&#xaf;" horiz-adv-x="1024" d="M305 1212l62 238h770l-64 -238h-768z" />
<glyph unicode="&#xb0;" horiz-adv-x="925" d="M184 1040q0 170 118.5 291t289.5 121q159 0 253.5 -95t94.5 -237q0 -170 -118.5 -290.5t-289.5 -120.5q-158 0 -253 94t-95 237zM401 1051q0 -66 39.5 -108t102.5 -42q80 0 131 65t51 144q0 66 -39 108t-102 42q-81 0 -132 -64.5t-51 -144.5z" />
<glyph unicode="&#xb1;" horiz-adv-x="1277" d="M-45 244l264 229q71 -85 148.5 -125.5t179.5 -40.5q100 0 159.5 46.5t59.5 107.5q0 56 -42 84t-136 28h-148l80 299h139q102 0 164 38t62 106q0 49 -41.5 79.5t-104.5 30.5q-81 0 -155 -34t-160 -105l-203 250q236 225 567 225q227 0 361.5 -108t134.5 -262 q0 -144 -87 -238.5t-247 -138.5q98 -35 155.5 -109t57.5 -180q0 -131 -80 -235t-221.5 -162t-318.5 -58q-403 0 -588 273z" />
<glyph unicode="&#xb4;" horiz-adv-x="1024" d="M410 1202l317 379l354 -117l-370 -262h-301z" />
<glyph unicode="&#xb5;" d="M106 616q0 130 40.5 255t117.5 230.5t180.5 186.5t237 126.5t279.5 45.5q150 0 278.5 -49.5t217 -135t138.5 -204t50 -254.5q0 -158 -62 -307t-174 -268l109 -148l-283 -186l-92 141q-164 -76 -352 -76q-200 0 -357 84.5t-242.5 231t-85.5 327.5zM510 643 q0 -144 82.5 -232.5t230.5 -88.5q47 0 103 18l-158 213l285 188l123 -192q63 111 63 233q0 144 -82.5 233t-230.5 89q-91 0 -170.5 -41.5t-132.5 -108t-83 -148t-30 -163.5z" />
<glyph unicode="&#xb6;" horiz-adv-x="1222" d="M141 862q0 125 46.5 229.5t135.5 181t227.5 119t313.5 42.5h471l-385 -1434h-397l115 434q-527 26 -527 428z" />
<glyph unicode="&#xb7;" horiz-adv-x="618" d="M72 440l106 400h406l-109 -400h-403z" />
<glyph unicode="&#xb8;" horiz-adv-x="1024" d="M43 -223l256 254h264l-235 -385z" />
<glyph unicode="&#xba;" horiz-adv-x="823" d="M98 553l43 158h580l-41 -158h-582zM209 1096q0 90 46 170t130 130t184 50q136 0 217.5 -81t81.5 -206q0 -139 -104 -244.5t-254 -105.5q-137 0 -219 81t-82 206zM416 1100q0 -50 28.5 -81.5t75.5 -31.5q61 0 101.5 51t40.5 115q0 51 -29 83t-76 32q-61 0 -101 -51 t-40 -117z" />
<glyph unicode="&#xbb;" horiz-adv-x="1290" d="M-12 270l350 340l-158 318l291 129l229 -479l-4 -17l-493 -485zM547 254l340 330l-168 338l291 129l221 -459l-29 -100l-440 -435z" />
<glyph unicode="&#xbf;" horiz-adv-x="1105" d="M27 352q0 179 129 300t387 163l61 152h246l-35 -344l-20 -17q-371 -30 -371 -178q0 -47 34 -74.5t101 -27.5q138 0 277 110l159 -276q-99 -87 -230 -133.5t-273 -46.5q-212 0 -338.5 106t-126.5 266zM559 1085l94 349h406l-94 -349h-406z" />
<glyph unicode="&#xc0;" horiz-adv-x="1587" d="M-152 0l998 1444h389l223 -1444h-418l-34 256h-553l-172 -256h-433zM653 565h320l-51 412zM711 1792l366 117l113 -379h-252z" />
<glyph unicode="&#xc1;" horiz-adv-x="1587" d="M-152 0l998 1444h389l223 -1444h-418l-34 256h-553l-172 -256h-433zM653 565h320l-51 412zM870 1530l318 379l354 -117l-371 -262h-301z" />
<glyph unicode="&#xc2;" horiz-adv-x="1587" d="M-152 0l998 1444h389l223 -1444h-418l-34 256h-553l-172 -256h-433zM612 1530l353 338h315l172 -338h-231l-140 125l-207 -125h-262zM653 565h320l-51 412z" />
<glyph unicode="&#xc3;" horiz-adv-x="1587" d="M-152 0l998 1444h389l223 -1444h-418l-34 256h-553l-172 -256h-433zM616 1606q58 143 145 219t185 76q84 0 172 -62q70 -51 105 -51q40 0 71.5 29.5t63.5 87.5l182 -82q-59 -143 -145.5 -219t-184.5 -76q-85 0 -172 61q-40 28 -62 39.5t-44 11.5q-39 0 -70 -29.5 t-63 -86.5zM653 565h320l-51 412z" />
<glyph unicode="&#xc4;" horiz-adv-x="1587" d="M-152 0l998 1444h389l223 -1444h-418l-34 256h-553l-172 -256h-433zM653 565h320l-51 412zM653 1530l80 293h340l-80 -293h-340zM1102 1530l80 293h340l-80 -293h-340z" />
<glyph unicode="&#xc5;" horiz-adv-x="1587" d="M-152 0q62 89 163 235t314.5 455t355.5 514.5t142 204.5q-39 58 -39 125q0 122 88 209.5t213 87.5q112 0 180 -65t68 -164q0 -122 -90 -205l215 -1397h-418l-34 256h-553l-172 -256h-433zM653 565h320l-51 412zM932 1538q0 -47 28 -77.5t76 -30.5q65 0 107.5 51t42.5 118 q0 46 -29 77.5t-78 31.5q-63 0 -105 -52t-42 -118z" />
<glyph unicode="&#xc6;" horiz-adv-x="2211" d="M-156 0l1127 1434h1378l-90 -338h-715l-57 -217h641l-84 -314h-641l-64 -227h725l-90 -338h-1112l70 256h-457l-199 -256h-432zM713 565h303l145 549h-26z" />
<glyph unicode="&#xc7;" horiz-adv-x="1488" d="M104 598q0 127 39.5 251.5t117.5 234.5t183 194t246.5 133t298.5 49q219 0 373.5 -97t218.5 -265l-342 -185q-90 185 -291 185q-116 0 -215.5 -66t-156 -174t-56.5 -231q0 -133 80.5 -213t206.5 -80q90 0 162 36t145 109l268 -237q-235 -264 -583 -269l-203 -327 l-285 131l232 229q-203 61 -321 216t-118 376z" />
<glyph unicode="&#xc8;" horiz-adv-x="1370" d="M-25 0l385 1434h1149l-92 -338h-753l-60 -217h684l-84 -314h-684l-61 -227h766l-90 -338h-1160zM649 1792l367 117l112 -379h-251z" />
<glyph unicode="&#xc9;" horiz-adv-x="1370" d="M-25 0l385 1434h1149l-92 -338h-753l-60 -217h684l-84 -314h-684l-61 -227h766l-90 -338h-1160zM758 1530l317 379l355 -117l-371 -262h-301z" />
<glyph unicode="&#xca;" horiz-adv-x="1370" d="M-25 0l385 1434h1149l-92 -338h-753l-60 -217h684l-84 -314h-684l-61 -227h766l-90 -338h-1160zM532 1530l353 338h315l172 -338h-231l-140 125l-206 -125h-263z" />
<glyph unicode="&#xcb;" horiz-adv-x="1370" d="M-25 0l385 1434h1149l-92 -338h-753l-60 -217h684l-84 -314h-684l-61 -227h766l-90 -338h-1160zM559 1530l80 293h340l-80 -293h-340zM1008 1530l79 293h340l-79 -293h-340z" />
<glyph unicode="&#xcc;" horiz-adv-x="665" d="M-14 0l385 1434h397l-385 -1434h-397zM264 1792l367 117l112 -379h-251z" />
<glyph unicode="&#xcd;" horiz-adv-x="665" d="M-14 0l385 1434h397l-385 -1434h-397zM408 1530l317 379l354 -117l-370 -262h-301z" />
<glyph unicode="&#xce;" horiz-adv-x="665" d="M-14 0l385 1434h397l-385 -1434h-397zM156 1530l352 338h315l172 -338h-231l-139 125l-207 -125h-262z" />
<glyph unicode="&#xcf;" horiz-adv-x="665" d="M-14 0l385 1434h397l-385 -1434h-397zM199 1530l80 293h339l-79 -293h-340zM647 1530l80 293h340l-80 -293h-340z" />
<glyph unicode="&#xd0;" horiz-adv-x="1638" d="M47 565l86 314h172l150 555h452q376 0 561 -185q156 -156 156 -420q0 -330 -235 -565q-264 -264 -752 -264h-567l149 565h-172zM547 340h135q127 0 238 39t182 110q60 61 94.5 143t34.5 167q0 125 -74 202q-94 91 -289 91h-118l-58 -213h234l-84 -314h-234z" />
<glyph unicode="&#xd1;" horiz-adv-x="1599" d="M-25 0l385 1434h371l371 -797l215 797h395l-385 -1434h-348l-387 825l-221 -825h-396zM612 1606q58 143 145 219t185 76q84 0 172 -62q70 -51 105 -51q40 0 71.5 29.5t63.5 87.5l182 -82q-59 -143 -145.5 -219t-184.5 -76q-85 0 -172 61q-40 28 -62 39.5t-44 11.5 q-39 0 -70 -29.5t-63 -86.5z" />
<glyph unicode="&#xd2;" d="M106 616q0 130 40.5 255t117.5 230.5t180.5 186.5t237 126.5t279.5 45.5q150 0 278.5 -49.5t217 -135t138.5 -204t50 -254.5q0 -108 -29 -214t-81.5 -199t-130 -172.5t-170.5 -136.5t-207 -89.5t-236 -32.5q-200 0 -357 84.5t-242.5 231t-85.5 327.5zM512 647 q0 -141 82.5 -229t230.5 -88q91 0 170.5 41t131.5 107t82 147t30 161q0 141 -82.5 229.5t-230.5 88.5q-90 0 -169.5 -41.5t-132 -107.5t-82.5 -147t-30 -161zM705 1792l366 117l113 -379h-252z" />
<glyph unicode="&#xd3;" d="M106 616q0 130 40.5 255t117.5 230.5t180.5 186.5t237 126.5t279.5 45.5q150 0 278.5 -49.5t217 -135t138.5 -204t50 -254.5q0 -108 -29 -214t-81.5 -199t-130 -172.5t-170.5 -136.5t-207 -89.5t-236 -32.5q-200 0 -357 84.5t-242.5 231t-85.5 327.5zM512 647 q0 -141 82.5 -229t230.5 -88q91 0 170.5 41t131.5 107t82 147t30 161q0 141 -82.5 229.5t-230.5 88.5q-90 0 -169.5 -41.5t-132 -107.5t-82.5 -147t-30 -161zM807 1530l317 379l355 -117l-371 -262h-301z" />
<glyph unicode="&#xd4;" d="M106 616q0 130 40.5 255t117.5 230.5t180.5 186.5t237 126.5t279.5 45.5q150 0 278.5 -49.5t217 -135t138.5 -204t50 -254.5q0 -108 -29 -214t-81.5 -199t-130 -172.5t-170.5 -136.5t-207 -89.5t-236 -32.5q-200 0 -357 84.5t-242.5 231t-85.5 327.5zM512 647 q0 -141 82.5 -229t230.5 -88q91 0 170.5 41t131.5 107t82 147t30 161q0 141 -82.5 229.5t-230.5 88.5q-90 0 -169.5 -41.5t-132 -107.5t-82.5 -147t-30 -161zM606 1530l352 338h316l172 -338h-232l-139 125l-207 -125h-262z" />
<glyph unicode="&#xd5;" d="M106 616q0 130 40.5 255t117.5 230.5t180.5 186.5t237 126.5t279.5 45.5q150 0 278.5 -49.5t217 -135t138.5 -204t50 -254.5q0 -108 -29 -214t-81.5 -199t-130 -172.5t-170.5 -136.5t-207 -89.5t-236 -32.5q-200 0 -357 84.5t-242.5 231t-85.5 327.5zM512 647 q0 -141 82.5 -229t230.5 -88q91 0 170.5 41t131.5 107t82 147t30 161q0 141 -82.5 229.5t-230.5 88.5q-90 0 -169.5 -41.5t-132 -107.5t-82.5 -147t-30 -161zM616 1606q58 143 145 219t185 76q84 0 172 -62q70 -51 105 -51q40 0 71.5 29.5t63.5 87.5l182 -82 q-59 -143 -145.5 -219t-184.5 -76q-85 0 -172 61q-40 28 -62 39.5t-44 11.5q-39 0 -70 -29.5t-63 -86.5z" />
<glyph unicode="&#xd6;" d="M106 616q0 130 40.5 255t117.5 230.5t180.5 186.5t237 126.5t279.5 45.5q150 0 278.5 -49.5t217 -135t138.5 -204t50 -254.5q0 -108 -29 -214t-81.5 -199t-130 -172.5t-170.5 -136.5t-207 -89.5t-236 -32.5q-200 0 -357 84.5t-242.5 231t-85.5 327.5zM512 647 q0 -141 82.5 -229t230.5 -88q91 0 170.5 41t131.5 107t82 147t30 161q0 141 -82.5 229.5t-230.5 88.5q-90 0 -169.5 -41.5t-132 -107.5t-82.5 -147t-30 -161zM651 1530l80 293h340l-80 -293h-340zM1100 1530l80 293h340l-80 -293h-340z" />
<glyph unicode="&#xd8;" d="M-74 -10l289 262q-109 159 -109 364q0 130 40.5 255t117.5 230.5t180.5 186.5t237 126.5t279.5 45.5q262 0 448 -143l139 127h301l-305 -277q101 -150 101 -350q0 -108 -29 -214t-81.5 -199t-130 -172.5t-170.5 -136.5t-207 -89.5t-236 -32.5q-256 0 -435 136l-129 -119 h-301zM502 645q0 -71 20 -127l598 543q-76 55 -194 55q-92 0 -173.5 -42.5t-135 -110.5t-84.5 -151.5t-31 -166.5zM647 360q78 -43 178 -43q74 0 142 28t119 75t88.5 107.5t57 127.5t19.5 133q0 56 -16 109z" />
<glyph unicode="&#xd9;" horiz-adv-x="1556" d="M121 475q0 101 33 230l196 729h402l-203 -758q-21 -79 -21 -135q0 -98 59 -153.5t165 -55.5q116 0 192 76q77 74 121 237l213 789h401l-227 -848q-76 -281 -223 -428q-185 -185 -529 -185q-276 0 -427.5 132.5t-151.5 369.5zM700 1788l367 117l113 -379h-252z" />
<glyph unicode="&#xda;" horiz-adv-x="1556" d="M121 475q0 101 33 230l196 729h402l-203 -758q-21 -79 -21 -135q0 -98 59 -153.5t165 -55.5q116 0 192 76q77 74 121 237l213 789h401l-227 -848q-76 -281 -223 -428q-185 -185 -529 -185q-276 0 -427.5 132.5t-151.5 369.5zM831 1526l318 379l354 -117l-370 -262h-302z " />
<glyph unicode="&#xdb;" horiz-adv-x="1556" d="M121 475q0 101 33 230l196 729h402l-203 -758q-21 -79 -21 -135q0 -98 59 -153.5t165 -55.5q116 0 192 76q77 74 121 237l213 789h401l-227 -848q-76 -281 -223 -428q-185 -185 -529 -185q-276 0 -427.5 132.5t-151.5 369.5zM602 1530l352 338h316l172 -338h-232 l-139 125l-207 -125h-262z" />
<glyph unicode="&#xdc;" horiz-adv-x="1556" d="M121 475q0 101 33 230l196 729h402l-203 -758q-21 -79 -21 -135q0 -98 59 -153.5t165 -55.5q116 0 192 76q77 74 121 237l213 789h401l-227 -848q-76 -281 -223 -428q-185 -185 -529 -185q-276 0 -427.5 132.5t-151.5 369.5zM643 1530l80 293h340l-80 -293h-340z M1092 1530l79 293h340l-79 -293h-340z" />
<glyph unicode="&#xdd;" horiz-adv-x="1386" d="M186 1434h428l142 -537l432 537h475l-801 -922l-137 -512h-399l149 555zM731 1530l318 379l354 -117l-371 -262h-301z" />
<glyph unicode="&#xde;" horiz-adv-x="1396" d="M-25 0l385 1434h400l-53 -205h75q174 0 292 -36t196 -114q110 -113 110 -288q0 -263 -194 -418.5t-510 -155.5h-244l-57 -217h-400zM518 532h150q144 0 225.5 60.5t81.5 161.5q0 61 -41 102q-53 53 -170 53h-146z" />
<glyph unicode="&#xdf;" horiz-adv-x="1308" d="M-39 0l264 981q65 246 193 377q153 153 413 153q218 0 349 -110.5t131 -290.5q0 -151 -82.5 -257t-239.5 -151q100 -37 158.5 -107t58.5 -167t-44 -178.5t-130 -143.5t-228 -92.5t-323 -19.5l74 282q145 0 214 54t69 135q0 58 -47 97t-146 48l55 207q127 27 187.5 88.5 t60.5 147.5q0 64 -37.5 100.5t-93.5 36.5q-148 0 -209 -225l-258 -965h-389z" />
<glyph unicode="&#xe0;" horiz-adv-x="1222" d="M2 279q0 181 132.5 286t354.5 105q141 0 281 -43l4 14q10 45 10 68q0 118 -190 118q-161 0 -299 -55l-55 283q191 67 436 67t369 -91.5t124 -260.5q0 -74 -22 -160l-164 -610h-383l31 119q-75 -70 -151.5 -106t-168.5 -36q-138 0 -223.5 82.5t-85.5 219.5zM381 319 q0 -47 30.5 -74.5t80.5 -27.5q74 0 139 58t88 143l10 37q-74 24 -145 24q-93 0 -148 -43t-55 -117zM457 1464l366 117l113 -379h-252z" />
<glyph unicode="&#xe1;" horiz-adv-x="1222" d="M2 279q0 181 132.5 286t354.5 105q141 0 281 -43l4 14q10 45 10 68q0 118 -190 118q-161 0 -299 -55l-55 283q191 67 436 67t369 -91.5t124 -260.5q0 -74 -22 -160l-164 -610h-383l31 119q-75 -70 -151.5 -106t-168.5 -36q-138 0 -223.5 82.5t-85.5 219.5zM381 319 q0 -47 30.5 -74.5t80.5 -27.5q74 0 139 58t88 143l10 37q-74 24 -145 24q-93 0 -148 -43t-55 -117zM571 1202l318 379l354 -117l-371 -262h-301z" />
<glyph unicode="&#xe2;" horiz-adv-x="1222" d="M2 279q0 181 132.5 286t354.5 105q141 0 281 -43l4 14q10 45 10 68q0 118 -190 118q-161 0 -299 -55l-55 283q191 67 436 67t369 -91.5t124 -260.5q0 -74 -22 -160l-164 -610h-383l31 119q-75 -70 -151.5 -106t-168.5 -36q-138 0 -223.5 82.5t-85.5 219.5zM360 1202 l353 338h315l172 -338h-231l-140 125l-206 -125h-263zM381 319q0 -47 30.5 -74.5t80.5 -27.5q74 0 139 58t88 143l10 37q-74 24 -145 24q-93 0 -148 -43t-55 -117z" />
<glyph unicode="&#xe3;" horiz-adv-x="1222" d="M2 279q0 181 132.5 286t354.5 105q141 0 281 -43l4 14q10 45 10 68q0 118 -190 118q-161 0 -299 -55l-55 283q191 67 436 67t369 -91.5t124 -260.5q0 -74 -22 -160l-164 -610h-383l31 119q-75 -70 -151.5 -106t-168.5 -36q-138 0 -223.5 82.5t-85.5 219.5zM344 1278 q58 143 145 219t185 76q84 0 172 -62q70 -51 104 -51q40 0 71.5 29.5t63.5 87.5l183 -82q-59 -143 -145.5 -219t-184.5 -76q-84 0 -172 62q-73 51 -107 51q-39 0 -70 -29.5t-63 -87.5zM381 319q0 -47 30.5 -74.5t80.5 -27.5q74 0 139 58t88 143l10 37q-74 24 -145 24 q-93 0 -148 -43t-55 -117z" />
<glyph unicode="&#xe4;" horiz-adv-x="1222" d="M2 279q0 181 132.5 286t354.5 105q141 0 281 -43l4 14q10 45 10 68q0 118 -190 118q-161 0 -299 -55l-55 283q191 67 436 67t369 -91.5t124 -260.5q0 -74 -22 -160l-164 -610h-383l31 119q-75 -70 -151.5 -106t-168.5 -36q-138 0 -223.5 82.5t-85.5 219.5zM381 319 q0 -47 30.5 -74.5t80.5 -27.5q74 0 139 58t88 143l10 37q-74 24 -145 24q-93 0 -148 -43t-55 -117zM389 1204l80 293h340l-80 -293h-340zM838 1204l80 293h339l-79 -293h-340z" />
<glyph unicode="&#xe5;" horiz-adv-x="1222" d="M2 279q0 181 132.5 286t354.5 105q141 0 281 -43l4 14q10 45 10 68q0 118 -190 118q-161 0 -299 -55l-55 283q191 67 436 67t369 -91.5t124 -260.5q0 -74 -22 -160l-164 -610h-383l31 119q-75 -70 -151.5 -106t-168.5 -36q-138 0 -223.5 82.5t-85.5 219.5zM381 319 q0 -47 30.5 -74.5t80.5 -27.5q74 0 139 58t88 143l10 37q-74 24 -145 24q-93 0 -148 -43t-55 -117zM578 1442q0 122 88 209.5t213 87.5q111 0 178 -65.5t67 -164.5q0 -121 -88 -209t-213 -88q-111 0 -178 65.5t-67 164.5zM723 1446q0 -47 29 -78t77 -31q65 0 107.5 51.5 t42.5 118.5q0 46 -29.5 77.5t-77.5 31.5q-65 0 -107 -52t-42 -118z" />
<glyph unicode="&#xe6;" horiz-adv-x="1906" d="M2 279q0 181 132.5 286t354.5 105q141 0 281 -43l4 14q10 45 10 68q0 118 -190 118q-161 0 -299 -55l-55 283q191 67 436 67q254 0 360 -131q172 142 379 142q91 0 166.5 -24.5t128.5 -67.5t89.5 -101.5t53.5 -125.5t17 -140q0 -113 -43 -228h-735q6 -86 57.5 -134 t148.5 -48q115 0 236 88l180 -213q-188 -166 -459 -166q-138 0 -246 52.5t-175 148.5q-200 -197 -478 -197q-164 0 -259 81t-95 221zM381 319q0 -47 34.5 -75.5t96.5 -28.5q60 0 128 29t124 82q-16 59 -19 120q-75 33 -161 33q-93 0 -148 -43t-55 -117zM1118 645h395 q11 33 11 60q0 61 -39.5 101t-112.5 40q-81 0 -150.5 -52.5t-103.5 -148.5z" />
<glyph unicode="&#xe7;" horiz-adv-x="1153" d="M57 459q0 183 89 337.5t242 244t335 89.5q184 0 304 -83.5t167 -219.5l-305 -157q-29 69 -74 104t-117 35q-108 0 -187 -101t-79 -229q0 -83 47.5 -133.5t118.5 -50.5q62 0 111 23.5t102 78.5l238 -207q-88 -101 -194 -156t-253 -61l-203 -327l-284 131l237 235 q-138 55 -216.5 171t-78.5 276z" />
<glyph unicode="&#xe8;" horiz-adv-x="1230" d="M57 465q0 98 29.5 195t87.5 182t137 150t186 103t226 38t211.5 -37.5t148 -102.5t83.5 -145.5t28 -173.5q0 -113 -43 -228h-735q6 -86 58 -134t149 -48q114 0 235 88l180 -213q-191 -166 -452 -166q-245 0 -387 133.5t-142 358.5zM442 645h396q10 30 10 60 q0 61 -39.5 101t-112.5 40q-81 0 -150.5 -52.5t-103.5 -148.5zM449 1464l366 117l113 -379h-252z" />
<glyph unicode="&#xe9;" horiz-adv-x="1230" d="M57 465q0 98 29.5 195t87.5 182t137 150t186 103t226 38t211.5 -37.5t148 -102.5t83.5 -145.5t28 -173.5q0 -113 -43 -228h-735q6 -86 58 -134t149 -48q114 0 235 88l180 -213q-191 -166 -452 -166q-245 0 -387 133.5t-142 358.5zM442 645h396q10 30 10 60 q0 61 -39.5 101t-112.5 40q-81 0 -150.5 -52.5t-103.5 -148.5zM561 1202l318 379l354 -117l-371 -262h-301z" />
<glyph unicode="&#xea;" horiz-adv-x="1230" d="M57 465q0 98 29.5 195t87.5 182t137 150t186 103t226 38t211.5 -37.5t148 -102.5t83.5 -145.5t28 -173.5q0 -113 -43 -228h-735q6 -86 58 -134t149 -48q114 0 235 88l180 -213q-191 -166 -452 -166q-245 0 -387 133.5t-142 358.5zM344 1202l352 338h316l172 -338h-232 l-139 125l-207 -125h-262zM442 645h396q10 30 10 60q0 61 -39.5 101t-112.5 40q-81 0 -150.5 -52.5t-103.5 -148.5z" />
<glyph unicode="&#xeb;" horiz-adv-x="1230" d="M57 465q0 98 29.5 195t87.5 182t137 150t186 103t226 38t211.5 -37.5t148 -102.5t83.5 -145.5t28 -173.5q0 -113 -43 -228h-735q6 -86 58 -134t149 -48q114 0 235 88l180 -213q-191 -166 -452 -166q-245 0 -387 133.5t-142 358.5zM379 1202l80 293h340l-80 -293h-340z M442 645h396q10 30 10 60q0 61 -39.5 101t-112.5 40q-81 0 -150.5 -52.5t-103.5 -148.5zM827 1202l80 293h340l-80 -293h-340z" />
<glyph unicode="&#xec;" horiz-adv-x="616" d="M-35 0l297 1108h389l-297 -1108h-389zM178 1464l367 117l112 -379h-251z" />
<glyph unicode="&#xed;" horiz-adv-x="616" d="M-35 0l297 1108h389l-297 -1108h-389zM283 1202l317 379l354 -117l-370 -262h-301z" />
<glyph unicode="&#xee;" horiz-adv-x="616" d="M-35 0l297 1108h389l-297 -1108h-389zM49 1202l352 338h316l172 -338h-232l-139 125l-207 -125h-262z" />
<glyph unicode="&#xef;" horiz-adv-x="616" d="M-35 0l297 1108h389l-297 -1108h-389zM84 1202l80 293h340l-80 -293h-340zM532 1202l80 293h340l-80 -293h-340z" />
<glyph unicode="&#xf0;" horiz-adv-x="1314" d="M53 453q0 143 70.5 264t198.5 193.5t286 72.5q155 0 269 -84l-113 244l-268 -92l-84 182l272 86l-80 176h371l31 -70l247 84l84 -182l-254 -80l80 -182q90 -202 90 -408q0 -145 -46 -270t-130.5 -216.5t-210 -143.5t-276.5 -52q-239 0 -388 134.5t-149 343.5zM428 483 q0 -83 54 -133.5t134 -50.5q106 0 176 72t70 168q0 81 -53 131.5t-135 50.5q-104 0 -175 -70t-71 -168z" />
<glyph unicode="&#xf1;" horiz-adv-x="1290" d="M-43 0l297 1108h389l-35 -127q144 152 318 152q150 0 235.5 -89t85.5 -243q0 -71 -33 -199l-159 -602h-389l155 580q13 47 13 90q0 56 -31.5 86t-91.5 30q-152 0 -207 -200l-158 -586h-389zM367 1278q58 143 144.5 219t184.5 76q84 0 172 -62q70 -51 105 -51 q40 0 71.5 29.5t63.5 87.5l182 -82q-59 -143 -145 -219t-184 -76q-85 0 -173 62q-40 28 -62 39.5t-44 11.5q-39 0 -70 -29.5t-63 -87.5z" />
<glyph unicode="&#xf2;" horiz-adv-x="1318" d="M61 489q0 124 50.5 241.5t136 206t208 142.5t257.5 54q249 0 396.5 -145.5t147.5 -369.5q0 -125 -50 -242.5t-136 -206.5t-208.5 -142.5t-258.5 -53.5q-248 0 -395.5 145.5t-147.5 370.5zM434 504q0 -95 53 -151t140 -56q110 0 184 95.5t74 211.5q0 93 -53 149t-140 56 q-110 0 -184 -95.5t-74 -209.5zM467 1464l367 117l112 -379h-252z" />
<glyph unicode="&#xf3;" horiz-adv-x="1318" d="M61 489q0 124 50.5 241.5t136 206t208 142.5t257.5 54q249 0 396.5 -145.5t147.5 -369.5q0 -125 -50 -242.5t-136 -206.5t-208.5 -142.5t-258.5 -53.5q-248 0 -395.5 145.5t-147.5 370.5zM434 504q0 -95 53 -151t140 -56q110 0 184 95.5t74 211.5q0 93 -53 149t-140 56 q-110 0 -184 -95.5t-74 -209.5zM575 1202l318 379l354 -117l-370 -262h-302z" />
<glyph unicode="&#xf4;" horiz-adv-x="1318" d="M61 489q0 124 50.5 241.5t136 206t208 142.5t257.5 54q249 0 396.5 -145.5t147.5 -369.5q0 -125 -50 -242.5t-136 -206.5t-208.5 -142.5t-258.5 -53.5q-248 0 -395.5 145.5t-147.5 370.5zM352 1202l353 338h315l172 -338h-231l-140 125l-207 -125h-262zM434 504 q0 -95 53 -151t140 -56q110 0 184 95.5t74 211.5q0 93 -53 149t-140 56q-110 0 -184 -95.5t-74 -209.5z" />
<glyph unicode="&#xf5;" horiz-adv-x="1318" d="M61 489q0 124 50.5 241.5t136 206t208 142.5t257.5 54q249 0 396.5 -145.5t147.5 -369.5q0 -125 -50 -242.5t-136 -206.5t-208.5 -142.5t-258.5 -53.5q-248 0 -395.5 145.5t-147.5 370.5zM348 1278q58 143 145 219t185 76q84 0 172 -62q70 -51 104 -51q40 0 72 29.5 t64 87.5l182 -82q-59 -143 -145.5 -219t-184.5 -76q-84 0 -172 62q-40 28 -62 39.5t-44 11.5q-39 0 -70.5 -30t-63.5 -87zM434 504q0 -95 53 -151t140 -56q110 0 184 95.5t74 211.5q0 93 -53 149t-140 56q-110 0 -184 -95.5t-74 -209.5z" />
<glyph unicode="&#xf6;" horiz-adv-x="1318" d="M61 489q0 124 50.5 241.5t136 206t208 142.5t257.5 54q249 0 396.5 -145.5t147.5 -369.5q0 -125 -50 -242.5t-136 -206.5t-208.5 -142.5t-258.5 -53.5q-248 0 -395.5 145.5t-147.5 370.5zM383 1202l80 293h340l-80 -293h-340zM434 504q0 -95 53 -151t140 -56 q110 0 184 95.5t74 211.5q0 93 -53 149t-140 56q-110 0 -184 -95.5t-74 -209.5zM831 1202l80 293h340l-80 -293h-340z" />
<glyph unicode="&#xf8;" horiz-adv-x="1318" d="M-115 -10l250 223q-74 121 -74 283q0 163 84.5 309t236 237t331.5 91q210 0 352 -107l102 92h273l-254 -227q71 -118 71 -279q0 -122 -50 -238t-136 -204t-208.5 -141.5t-258.5 -53.5q-206 0 -346 105l-100 -90h-273zM418 502q0 -17 4 -53l387 346q-46 28 -113 28 q-119 0 -198.5 -99.5t-79.5 -221.5zM514 309q50 -26 109 -26q119 0 198.5 100.5t79.5 222.5q0 19 -4 47z" />
<glyph unicode="&#xf9;" horiz-adv-x="1294" d="M53 307q0 78 31 199l162 602h389l-156 -580q-14 -51 -14 -90q0 -56 32 -86t93 -30q153 0 205 200l157 586h389l-294 -1108h-390l33 127q-144 -152 -315 -152q-150 0 -236 89.5t-86 242.5zM522 1464l367 117l112 -379h-251z" />
<glyph unicode="&#xfa;" horiz-adv-x="1294" d="M53 307q0 78 31 199l162 602h389l-156 -580q-14 -51 -14 -90q0 -56 32 -86t93 -30q153 0 205 200l157 586h389l-294 -1108h-390l33 127q-144 -152 -315 -152q-150 0 -236 89.5t-86 242.5zM608 1202l318 379l354 -117l-371 -262h-301z" />
<glyph unicode="&#xfb;" horiz-adv-x="1294" d="M53 307q0 78 31 199l162 602h389l-156 -580q-14 -51 -14 -90q0 -56 32 -86t93 -30q153 0 205 200l157 586h389l-294 -1108h-390l33 127q-144 -152 -315 -152q-150 0 -236 89.5t-86 242.5zM389 1202l352 338h316l172 -338h-232l-139 125l-207 -125h-262z" />
<glyph unicode="&#xfc;" horiz-adv-x="1294" d="M53 307q0 78 31 199l162 602h389l-156 -580q-14 -51 -14 -90q0 -56 32 -86t93 -30q153 0 205 200l157 586h389l-294 -1108h-390l33 127q-144 -152 -315 -152q-150 0 -236 89.5t-86 242.5zM426 1202l80 293h340l-80 -293h-340zM874 1202l80 293h340l-80 -293h-340z" />
<glyph unicode="&#xfd;" horiz-adv-x="1273" d="M-102 -254l174 285q77 -56 153 -56q56 0 97 41l-144 1092h395l45 -666l373 666h410l-686 -1102q-119 -186 -238.5 -263t-283.5 -77q-171 0 -295 80zM612 1202l318 379l354 -117l-371 -262h-301z" />
<glyph unicode="&#xfe;" horiz-adv-x="1376" d="M-131 -328l487 1823h389l-135 -504q145 142 316 142q170 0 281.5 -123t111.5 -332q0 -145 -49 -276.5t-130 -224.5t-190.5 -147.5t-226.5 -54.5q-220 0 -336 177l-129 -480h-389zM463 496q0 -89 53.5 -143t138.5 -54q110 0 190.5 93t80.5 224q0 89 -52 142t-137 53 q-112 0 -193 -94t-81 -221z" />
<glyph unicode="&#xff;" horiz-adv-x="1273" d="M-102 -254l174 285q77 -56 153 -56q56 0 97 41l-144 1092h395l45 -666l373 666h410l-686 -1102q-119 -186 -238.5 -263t-283.5 -77q-171 0 -295 80zM399 1202l80 293h340l-80 -293h-340zM848 1202l80 293h340l-80 -293h-340z" />
<glyph unicode="&#x152;" horiz-adv-x="2211" d="M104 604q0 329 236 565q265 265 752 265h1257l-90 -338h-715l-57 -217h641l-84 -314h-641l-64 -227h725l-90 -338h-1153q-377 0 -565 188q-152 152 -152 416zM514 637q0 -125 72 -197q85 -88 278 -88h86l197 729h-100q-127 0 -233.5 -37.5t-176.5 -107.5 q-58 -58 -90.5 -136.5t-32.5 -162.5z" />
<glyph unicode="&#x153;" horiz-adv-x="2052" d="M61 496q0 164 84 310t235.5 236.5t332.5 90.5q133 0 235.5 -49t165.5 -136q177 185 434 185q116 0 206.5 -37.5t146 -102.5t84 -146t28.5 -173q0 -113 -43 -228h-735q6 -86 58.5 -134t150.5 -48q112 0 233 88l181 -213q-188 -166 -459 -166q-253 0 -381 174 q-81 -81 -186.5 -126.5t-225.5 -45.5q-125 0 -228 39.5t-172 109.5t-107 165.5t-38 206.5zM434 506q0 -93 52.5 -150t138.5 -57q113 0 186.5 92t73.5 211q0 92 -53 149.5t-140 57.5q-111 0 -184.5 -92.5t-73.5 -210.5zM1262 645h397q8 24 8 60q0 61 -38.5 101t-110.5 40 q-83 0 -152.5 -52t-103.5 -149z" />
<glyph unicode="&#x178;" horiz-adv-x="1386" d="M186 1434h428l142 -537l432 537h475l-801 -922l-137 -512h-399l149 555zM524 1530l80 293h340l-80 -293h-340zM973 1530l80 293h340l-80 -293h-340z" />
<glyph unicode="&#x2c6;" horiz-adv-x="1024" d="M266 1202l352 338h316l172 -338h-232l-139 125l-207 -125h-262z" />
<glyph unicode="&#x2dc;" horiz-adv-x="1024" d="M272 1278q58 143 145 219t185 76q84 0 172 -62q70 -51 105 -51q40 0 71.5 29.5t63.5 87.5l182 -82q-59 -143 -145.5 -219t-184.5 -76q-84 0 -172 62q-40 28 -62 39.5t-44 11.5q-39 0 -70 -29.5t-63 -87.5z" />
<glyph unicode="&#x2000;" horiz-adv-x="954" />
<glyph unicode="&#x2001;" horiz-adv-x="1909" />
<glyph unicode="&#x2002;" horiz-adv-x="954" />
<glyph unicode="&#x2003;" horiz-adv-x="1909" />
<glyph unicode="&#x2004;" horiz-adv-x="636" />
<glyph unicode="&#x2005;" horiz-adv-x="477" />
<glyph unicode="&#x2006;" horiz-adv-x="318" />
<glyph unicode="&#x2007;" horiz-adv-x="318" />
<glyph unicode="&#x2008;" horiz-adv-x="238" />
<glyph unicode="&#x2009;" horiz-adv-x="381" />
<glyph unicode="&#x200a;" horiz-adv-x="106" />
<glyph unicode="&#x2010;" horiz-adv-x="854" d="M68 469l92 342h671l-90 -342h-673z" />
<glyph unicode="&#x2011;" horiz-adv-x="854" d="M68 469l92 342h671l-90 -342h-673z" />
<glyph unicode="&#x2012;" horiz-adv-x="854" d="M68 469l92 342h671l-90 -342h-673z" />
<glyph unicode="&#x2013;" horiz-adv-x="1077" d="M68 473l90 334h897l-90 -334h-897z" />
<glyph unicode="&#x2014;" horiz-adv-x="1835" d="M68 473l90 334h1654l-90 -334h-1654z" />
<glyph unicode="&#x2018;" horiz-adv-x="618" d="M129 705l92 346q53 200 171 293.5t343 103.5l17 -152q-231 -23 -269 -192h158l-109 -399h-403z" />
<glyph unicode="&#x2019;" horiz-adv-x="618" d="M119 842q119 12 184 59.5t84 132.5h-158l109 400h403l-92 -347q-54 -199 -171.5 -292.5t-342.5 -102.5z" />
<glyph unicode="&#x201a;" horiz-adv-x="618" d="M-152 -193q229 23 267 193h-156l107 399h405l-92 -344q-55 -201 -172.5 -294.5t-341.5 -102.5z" />
<glyph unicode="&#x201c;" horiz-adv-x="1157" d="M131 702l92 347q54 201 169 294t339 103l17 -152q-118 -12 -181 -59.5t-82 -132.5h152l-107 -400h-399zM676 702l92 347q54 201 169 294t339 103l16 -152q-117 -12 -180 -59.5t-82 -132.5h152l-107 -400h-399z" />
<glyph unicode="&#x201d;" horiz-adv-x="1157" d="M121 842q117 12 180 59.5t82 132.5h-152l107 400h399l-92 -347q-54 -200 -169 -293t-339 -102zM666 842q117 12 180 59.5t82 132.5h-152l107 400h399l-92 -347q-54 -200 -169 -293t-339 -102z" />
<glyph unicode="&#x201e;" horiz-adv-x="1157" d="M-152 -193q225 22 263 193h-152l107 399h399l-92 -344q-36 -135 -95.5 -218t-160 -128t-252.5 -51zM393 -193q117 12 180 60t82 133h-151l106 399h400l-92 -344q-36 -135 -95.5 -218t-160 -128t-252.5 -51z" />
<glyph unicode="&#x2022;" horiz-adv-x="1026" d="M229 643q0 106 46.5 204t136 163t200.5 65q127 0 201 -75.5t74 -198.5q0 -106 -47 -204t-136.5 -163t-199.5 -65q-128 0 -201.5 75t-73.5 199z" />
<glyph unicode="&#x2026;" horiz-adv-x="1757" d="M-41 0l104 393h400l-107 -393h-397zM532 0l105 393h399l-106 -393h-398zM1106 0l104 393h400l-107 -393h-397z" />
<glyph unicode="&#x202f;" horiz-adv-x="381" />
<glyph unicode="&#x2039;" horiz-adv-x="731" d="M57 500l27 100l446 438l213 -196l-344 -334l162 -328l-289 -129z" />
<glyph unicode="&#x203a;" horiz-adv-x="731" d="M-18 248l344 336l-162 327l289 127l217 -448l-29 -98l-444 -441z" />
<glyph unicode="&#x205f;" horiz-adv-x="477" />
<glyph unicode="&#x2122;" horiz-adv-x="1423" d="M207 1280l41 154h553l-41 -154h-189l-127 -477h-178l129 477h-188zM731 803l168 631h178l84 -244l215 244h195l-168 -631h-174l98 368l-227 -249h-6l-93 249l-98 -368h-172z" />
<glyph unicode="&#x25fc;" horiz-adv-x="1105" d="M0 0v1106h1106v-1106h-1106z" />
<glyph unicode="&#xfb01;" horiz-adv-x="1472" d="M27 0l215 795h-131l84 313h129l6 22q52 200 167 289.5t308 89.5q141 0 248 -36l-72 -273q-73 25 -131 25q-59 0 -92 -25.5t-47 -79.5l-6 -18h249l-82 -307h-241l-215 -795h-389zM821 0l297 1108h389l-297 -1108h-389zM1139 1208l78 287h405l-78 -287h-405z" />
<glyph unicode="&#xfb02;" horiz-adv-x="1472" d="M27 0l215 795h-131l84 313h129l6 22q52 200 167 289.5t308 89.5q141 0 248 -36l-72 -273q-73 25 -131 25q-59 0 -92 -25.5t-47 -79.5l-6 -18h249l-82 -307h-241l-215 -795h-389zM821 0l402 1495h389l-402 -1495h-389z" />
</font>
</defs>
</svg>
